<svg width="177" height="181" viewBox="0 0 177 181" fill="none" xmlns="http://www.w3.org/2000/svg">
<circle cx="82" cy="91" r="76" fill="#F6BE28"/>
<path d="M86.2678 155.16C82.1001 157.316 74.7224 158.857 64.3589 157.752C54.6294 156.715 51.1571 155.948 47.4575 153.519C42.1105 150.01 34.0155 145.173 26.9242 138.361C20.6195 132.304 16.9798 129.141 16.3321 127.945C13.4832 122.686 8.95783 113.995 8.6682 102.224C8.53367 96.7557 8.74587 88.7126 9.0491 83.2612C9.35233 77.8098 9.63048 75.0087 10.4147 71.9833C12.0425 65.7038 14.3401 58.6677 17.9428 52.8995C20.5541 48.7186 22.6647 45.7593 25.9906 43.1134C31.0424 39.0945 36.813 34.6847 44.4951 32.0033C54.9963 28.3379 61.951 25.9099 66.0064 26.1336" stroke="#45403B" stroke-width="6" stroke-linecap="square"/>
<path d="M142.87 58.6134C142.06 57.4957 140.091 54.1711 137.271 46.4191C135.279 40.9428 131.53 37.6207 119.327 29.6509C115.814 27.3565 108.342 25.9306 97.0585 23.777C88.8043 22.2015 81.3699 23.1555 74.78 24.132C70.4414 24.7749 67.0287 26.3253 62.5387 28.707C56.344 31.9929 50.6637 37.0841 45.9726 41.8464C43.7124 44.1408 42.0206 46.4964 38.941 51.2039C35.8614 55.9114 31.5281 62.9784 28.8318 67.9266C23.027 78.5792 22.5983 88.6716 22.4376 94.8361C22.4011 96.2374 24.0279 100.94 26.5483 109.601C29.3832 119.342 34.1339 127.839 37.1096 133.732C39.1685 137.81 41.8797 140.288 50.0499 146.239C58.7526 152.578 66.147 155.013 70.9862 155.243C74.7886 155.423 81.3439 155.187 87.9271 154.431C101.017 152.928 110.038 149.828 115.512 147.161C118.582 145.664 121.863 143.135 126.134 139.398C135.784 130.953 141.71 123.7 144.075 117.669C148.334 106.803 148.769 95.8094 148.846 90.2692C148.913 85.5025 148.566 81.9167 148.369 78.6358C147.849 75.8704 147.224 72.5451 146.435 68.0455C146.338 67.0548 146.398 66.4601 145.78 64.715" stroke="#45403B" stroke-width="6" stroke-linecap="square"/>
<path d="M34.832 42.5063H38.1639" stroke="#45403B" stroke-width="6" stroke-linecap="square"/>
<path d="M25.9531 48.5137C25.9833 48.5439 26.4119 48.7298 27.4404 49.0803C28.861 49.4454 30.0917 49.714 30.9486 49.8855C31.4045 49.9789 31.9029 50.0852 32.5333 50.1994" stroke="#45403B" stroke-width="6" stroke-linecap="square"/>
<path d="M16.3965 61.6882H27.0015" stroke="#45403B" stroke-width="6" stroke-linecap="square"/>
<path d="M13.7344 72.6895H19.7085" stroke="#45403B" stroke-width="6" stroke-linecap="square"/>
<path d="M10.7852 87.8005H20.0122" stroke="#45403B" stroke-width="6" stroke-linecap="square"/>
<path d="M12.4277 102.53C12.5184 102.53 13.6667 102.51 15.7283 102.387C16.6882 102.283 17.4732 102.096 18.0814 101.99C18.6897 101.884 19.0975 101.865 20.5026 101.378" stroke="#45403B" stroke-width="6" stroke-linecap="square"/>
<path d="M15.6582 117.597C15.841 117.597 16.0238 117.597 17.5996 117.597C19.1754 117.597 22.1385 117.597 26.0233 117.49" stroke="#45403B" stroke-width="6" stroke-linecap="square"/>
<path d="M22.25 131.965C22.3104 131.965 22.939 131.965 24.2752 131.902C25.0139 131.839 25.876 131.714 26.9557 131.489C28.0355 131.264 29.3069 130.945 30.8252 130.508" stroke="#45403B" stroke-width="6" stroke-linecap="square"/>
<path d="M35.2031 140.21C35.2641 140.21 35.325 140.21 35.8108 139.944C36.2967 139.677 37.2056 139.144 37.8548 138.784C38.504 138.423 38.866 138.251 39.3321 138.073" stroke="#45403B" stroke-width="6" stroke-linecap="square"/>
<path d="M47.6289 147.848C47.644 147.848 47.6591 147.848 47.943 147.687C48.2268 147.526 48.7789 147.205 49.5498 146.874" stroke="#45403B" stroke-width="6" stroke-linecap="square"/>
<path d="M44.6191 34.2737C44.6494 34.2737 44.6796 34.2737 44.9029 34.3068C45.1263 34.3398 45.542 34.406 46.6426 35.4448" stroke="#45403B" stroke-width="6" stroke-linecap="square"/>
<path d="M75.3828 74.184C75.396 70.498 75.6687 62.612 76.2795 61.9664C78.0476 60.0976 81.28 66.2695 82.7945 68.2826C83.1239 68.7205 83.4596 69.0754 83.8294 69.0088C87.5913 68.3311 91.0869 60.3102 93.0595 58.3832C95.1596 56.3315 96.2953 66.0904 97.0172 68.5485C98.2659 72.8007 105.148 59.6846 106.577 58.171C107.178 57.5344 107.768 64.9853 107.696 73.9186C107.671 77.0779 107.034 77.4264 104.214 77.6087C96.2499 77.7909 90.3811 77.9193 87.3855 78.1166C84.9578 78.1855 80.6875 78.1912 76.2879 78.197" stroke="#45403B" stroke-width="6" stroke-linecap="square"/>
<path d="M76.2973 81.6331C76.2973 83.7299 75.8352 89.0596 74.5582 90.7983C72.7754 93.2258 67.9562 91.7779 67.3396 92.5961C66.7003 93.4444 66.7828 95.066 66.9054 96.6739C66.9581 97.3657 67.3918 97.7453 67.8179 97.9917C68.6762 98.488 69.8198 98.3503 70.4457 98.4464C72.2087 98.7171 68.2892 101.822 68.1481 103.767C68.0734 104.796 69.5665 105.357 70.5122 105.875C71.4493 106.389 72.5721 106.21 73.5411 105.917C74.0116 105.717 74.4393 105.412 74.8161 105.053C75.193 104.694 75.506 104.289 76.2555 102.781" stroke="#45403B" stroke-width="6" stroke-linecap="square"/>
<path d="M105.281 80.1777C105.349 80.8269 106.175 83.2663 108.088 86.3688C109.896 89.3023 112.266 90.9497 114.403 91.5903C115.797 92.0082 117.348 91.2973 118.358 91.0361C119.019 90.8652 118.524 93.0053 118.055 94.6034C117.229 97.4144 113.428 98.7039 111.494 99.018C110.994 99.0993 113.221 99.5447 114.381 100.387C115.38 101.112 115.622 102.762 115.51 104.471C115.432 105.662 114.228 106.227 113.359 106.712C112.393 106.995 110.698 107.086 108.577 106.982C107.631 106.877 106.951 106.667 106.059 106.21" stroke="#45403B" stroke-width="6" stroke-linecap="square"/>
<path d="M76.7773 95.479C76.7773 98.4704 77.1042 105.634 78.1914 107.827C78.9024 109.262 81.8639 110.878 84.2613 112.129C87.3917 113.761 94.0009 113.299 96.6313 113.112C97.9768 113.016 99.2889 112.277 100.713 111.376C102.613 110.175 103.951 107.496 104.786 105.38C105.89 102.583 105.026 98.7357 104.673 97.3546C104.568 96.9635 104.45 96.479 104.36 96.0898C104.27 95.7006 104.212 95.4214 103.93 94.366" stroke="#45403B" stroke-width="6" stroke-linecap="round"/>
<path d="M84.2852 87.0635V87.3679" stroke="#45403B" stroke-width="6" stroke-linecap="round"/>
<path d="M94.8125 87.4375L94.9504 87.7574" stroke="#45403B" stroke-width="6" stroke-linecap="round"/>
<path d="M86.5918 94.2954C86.5918 95.2327 86.7745 97.5408 87.5421 98.6001C87.9336 99.1405 89.1263 98.9516 90.2094 98.9079C90.9466 98.8781 91.4507 98.4953 91.8926 98.0644C92.0964 97.8248 92.2588 97.5431 92.3914 97.2429C92.524 96.9427 92.6219 96.6325 92.7592 96.2909" stroke="#45403B" stroke-width="6" stroke-linecap="square"/>
<path d="M84.4609 104.374C84.4609 104.374 90.1641 107.178 92 106.5C92.6907 106.29 94 105.5 94 105.5L96.2684 103.445" stroke="#45403B" stroke-width="6" stroke-linecap="square"/>
<path d="M34.2393 83.8513C34.2393 83.8294 34.2393 83.8076 34.2393 83.6247C34.2393 83.4418 34.2393 83.0985 34.1294 83.0189C34.0195 82.9393 33.7996 83.1336 33.498 83.5788" stroke="#45403B" stroke-width="6" stroke-linecap="round"/>
<path d="M37.2687 100.807C37.099 100.807 36.858 101.074 36.7227 101.623C36.7409 101.906 36.9356 102.196 37.1725 102.392C37.4093 102.587 37.6823 102.678 37.9636 102.773" stroke="#45403B" stroke-width="6" stroke-linecap="round"/>
<path d="M43.64 122.879C43.6182 122.868 43.5964 122.857 43.4406 122.792C43.2848 122.727 42.9958 122.608 42.7379 122.656C42.4799 122.703 42.2619 122.921 42.5733 123.349" stroke="#45403B" stroke-width="6" stroke-linecap="round"/>
<path d="M51.5322 132.79C51.5322 132.811 51.7517 133.017 52.0915 133.079C52.2119 132.946 52.2264 132.479 52.1065 132.167C51.9866 131.855 51.7318 131.711 51.0645 131.808" stroke="#45403B" stroke-width="6" stroke-linecap="round"/>
<path d="M66.3613 140.961V141.192" stroke="#45403B" stroke-width="6" stroke-linecap="round"/>
<path d="M81.4873 145.69C81.4873 145.668 81.5354 145.363 81.5224 145.051C81.4615 145.031 81.29 145.294 81.0934 145.636C80.8968 145.979 80.6802 146.393 80.457 146.892" stroke="#45403B" stroke-width="6" stroke-linecap="round"/>
<path d="M97.1428 143.429C97.1428 143.418 97.1428 143.407 97.0526 143.521C96.9623 143.634 96.7817 143.871 96.5957 144.173" stroke="#45403B" stroke-width="6" stroke-linecap="round"/>
<path d="M113.502 136.895L113.428 137.657" stroke="#45403B" stroke-width="6" stroke-linecap="round"/>
<path d="M127.594 125.375C127.626 125.375 127.658 125.375 127.831 125.341C128.005 125.307 128.318 125.238 128.524 124.997C128.729 124.757 128.816 124.346 128.165 123.702" stroke="#45403B" stroke-width="6" stroke-linecap="round"/>
<path d="M137.084 109.733C137.084 109.797 137.312 110.013 137.763 110.181C137.985 110.165 138.195 109.943 138.313 109.442C138.431 108.941 138.45 108.167 138.157 107.332" stroke="#45403B" stroke-width="6" stroke-linecap="round"/>
<path d="M139.266 90.4612C139.266 90.4288 139.266 90.3964 139.266 90.0521C139.266 89.7078 139.266 89.0525 138.541 88.2837" stroke="#45403B" stroke-width="6" stroke-linecap="round"/>
<path d="M135.761 69.9305C135.761 69.909 135.761 69.8875 135.761 69.5097C135.761 69.1319 135.761 68.3984 135.41 67.6548" stroke="#45403B" stroke-width="6" stroke-linecap="round"/>
<path d="M130.131 52.9317C130.131 52.425 130.049 51.2235 129.789 50.7181C129.611 50.5179 129.339 50.4316 129.138 50.5127C128.936 50.5939 128.813 50.845 128.783 51.3608" stroke="#45403B" stroke-width="6" stroke-linecap="round"/>
<path d="M119.147 39.753C119.126 39.7311 119.104 39.7093 118.927 39.6436C118.75 39.5779 118.419 39.4691 118.084 39.4123C117.749 39.3555 117.421 39.3541 116.875 39.7684" stroke="#45403B" stroke-width="6" stroke-linecap="round"/>
<path d="M101.17 33.0649C101.17 33.0864 101.17 33.1079 101.211 33.2538C101.252 33.3998 101.334 33.6695 101.748 33.7102" stroke="#45403B" stroke-width="6" stroke-linecap="round"/>
<path d="M85.4966 32.7859C85.4748 32.7859 85.4529 32.7859 85.1767 32.7859C84.9004 32.7859 84.3704 32.7859 83.4062 33.3374" stroke="#45403B" stroke-width="6" stroke-linecap="round"/>
<path d="M69.394 36.6358C69.394 36.6249 69.394 36.614 69.2428 36.6085C69.0915 36.6031 68.789 36.6035 68.4023 36.7472" stroke="#45403B" stroke-width="6" stroke-linecap="round"/>
<path d="M58.8477 45.2178C58.8477 45.2283 58.8477 45.2389 58.9268 45.4007C59.006 45.5625 59.1644 45.8751 59.3832 46.0681C59.602 46.261 59.8764 46.3247 60.4946 45.9712" stroke="#45403B" stroke-width="6" stroke-linecap="round"/>
<path d="M50.6549 55.5239L50.207 55.2327" stroke="#45403B" stroke-width="6" stroke-linecap="round"/>
<path d="M41.0859 69.0743C41.0859 69.0634 41.0859 69.0524 41.0859 68.8925C41.0859 68.7325 41.0859 68.4238 41.2448 67.6414" stroke="#45403B" stroke-width="6" stroke-linecap="round"/>
</svg>
